<svg xmlns="http://www.w3.org/2000/svg" viewBox="0 0 394.94 394.93"><defs><style>.cls-1{fill:#ef3827;}.cls-2{fill:#f1f2f2;}</style></defs><title>turk</title><g id="Слой_2" data-name="Слой 2"><g id="Capa_1" data-name="Capa 1"><path class="cls-1" d="M5.83,150C32,44.17,139.06-20.36,244.9,5.83S415.3,139,389.11,244.89,255.89,415.3,150,389.1-20.38,255.88,5.83,150"/><path class="cls-2" d="M233,288.57a91.11,91.11,0,1,1,61.9-157.82,113.9,113.9,0,1,0,0,133.39A90.55,90.55,0,0,1,233,288.57"/><polygon class="cls-2" points="232.25 166.24 248.87 189.43 276.09 180.77 259.15 203.76 275.8 226.95 248.7 217.96 231.79 240.94 231.96 212.41 204.89 203.42 232.08 194.77 232.25 166.24"/></g></g></svg>