<svg width="175" height="29" viewBox="0 0 175 29" fill="none" xmlns="http://www.w3.org/2000/svg">
<path d="M171.583 14.4489L159.687 26.3434C159.687 26.3434 159.687 26.3434 159.687 26.3435C159.459 26.5707 159.331 26.8793 159.332 27.201L159.332 27.2011C159.333 27.8683 159.875 28.4085 160.543 28.4072M160.543 28.4072C160.542 28.4072 160.542 28.4072 160.542 28.4072V27.9072L160.543 28.4072Z" fill="#FFC223" stroke="#FFC223"/>
<path d="M157 15.6572H173.292C173.959 15.6572 174.5 15.1164 174.5 14.449C174.5 13.7816 173.959 13.2406 173.292 13.2406H1.89123C1.22389 13.2406 0.682874 13.7816 0.682874 14.449C0.682874 15.1164 1.22395 15.6572 1.89123 15.6572H157Z" fill="#FFC223" stroke="#FFC223"/>
</svg>
