<svg xmlns="http://www.w3.org/2000/svg" viewBox="0 0 809.03 1043.38"><defs><style>.cls-1{fill:#ffc223;}.cls-2{fill:#7b7d05;}.cls-3{fill:#989d00;}</style></defs><title>Ресурс 1</title><g id="Слой_2" data-name="Слой 2"><g id="Слой_1-2" data-name="Слой 1"><path class="cls-1" d="M273.57,386.22s-11.13-24.88,9.17-43.86S308.26,315.53,313.5,309s12.44-22.91,12.44-22.91S344.92,379,273.57,386.22Z"/><path class="cls-1" d="M272.64,387.82l-.44-1c-.11-.26-11.32-26.08,9.51-45.56,17.42-16.29,23.77-24.45,28.41-30.41.76-1,1.48-1.91,2.21-2.82,5.05-6.31,12.16-22.41,12.23-22.57l1.9-4.32,1,4.62c.41,2,9.87,50-12.05,79.75-9.49,12.89-23.5,20.36-41.64,22.19Zm52.6-96.64c-2.54,5.39-7,14.23-10.57,18.74-.72.89-1.43,1.81-2.19,2.78-4.7,6-11.13,14.31-28.72,30.76-17.23,16.12-11,36.38-9.22,41.14,16.71-1.92,29.62-8.94,38.39-20.85C330.13,340.39,327,304.14,325.24,291.18Z"/><path class="cls-1" d="M254.67,365s19.19-14.45,11.63-37.75-8.26-31.59-9.51-38.87.17-23,.17-23S202.68,329,254.67,365Z"/><path class="cls-1" d="M254.7,366.87l-.89-.61c-13.25-9.18-20.91-21-22.74-35-4.22-32.42,23.57-65.42,24.75-66.81l3.06-3.59-.42,4.7c0,.15-1.39,15.59-.19,22.59.17,1,.33,2,.51,3.12,1,6.57,2.46,15.57,8.94,35.55,7.81,24-12,39.26-12.15,39.41Zm.4-96.63c-7.13,9.63-24.3,35.76-21,60.64,1.68,12.84,8.59,23.69,20.55,32.26,3.55-3.05,16.6-15.92,10.27-35.4-6.56-20.21-8-29.34-9.06-36-.17-1.07-.33-2.09-.5-3.08C254.48,283.8,254.78,275.53,255.1,270.24Z"/><path class="cls-1" d="M248.16,438.9s19.53-21.29,5.49-47.19-16.69-35.56-19.76-43.9-4.83-27.22-4.83-27.22S178.8,407.73,248.16,438.9Z"/><path class="cls-1" d="M248.53,440.71l-1-.44c-17.6-7.91-29.18-20.1-34.39-36.23-12.05-37.3,13.52-82.3,14.61-84.2l2.36-4.08.43,4.69c0,.19,1.78,18.78,4.75,26.84.42,1.16.84,2.33,1.28,3.58,2.67,7.55,6.33,17.89,18.38,40.12,14.4,26.54-5.49,48.7-5.7,48.93ZM228.1,325.65c-6.07,12.2-21.64,48-12.09,77.47,4.84,15,15.52,26.39,31.74,33.95,3.35-4.09,16.59-22.5,4.58-44.65-12.17-22.44-15.88-32.91-18.58-40.55-.43-1.23-.85-2.4-1.27-3.54C230.33,342.49,228.84,331.89,228.1,325.65Z"/><path class="cls-1" d="M243.66,505.82s16.93-20.74,2.56-43.94-17.32-32-20.61-39.55-5.92-24.91-5.92-24.91S177.85,480.69,243.66,505.82Z"/><path class="cls-1" d="M244.14,507.6l-1-.38c-16.74-6.39-28.11-17.07-33.81-31.74-13.15-33.9,8.12-76.92,9-78.74l2.12-4.21.71,4.66c0,.17,2.64,17.26,5.81,24.54.45,1,.9,2.12,1.37,3.24,2.87,6.84,6.8,16.21,19.14,36.12,14.76,23.84-2.5,45.46-2.68,45.67ZM219,402.53c-5.05,11.9-17.2,45.38-6.91,71.87,5.26,13.54,15.7,23.49,31,29.61,2.94-4.08,14-21.67,1.8-41.34-12.46-20.12-16.45-29.61-19.36-36.54-.46-1.11-.91-2.17-1.36-3.2C222,417.75,220.06,408.3,219,402.53Z"/><path class="cls-1" d="M261.64,577.54s11.11-26.64-10.89-46.19S223,503.61,217.27,496.82s-13.79-23.92-13.79-23.92S185.88,571.84,261.64,577.54Z"/><path class="cls-1" d="M262.6,579.12l-1.08-.08c-19.23-1.45-34.24-9-44.62-22.35-24-30.93-15.28-81.9-14.9-84.06l.83-4.64,2,4.27c.08.17,8,17,13.58,23.6.79.94,1.58,1.9,2.41,2.92,5.08,6.19,12,14.66,30.92,31.45,22.53,20,11.39,47.61,11.27,47.89ZM204.3,478c-1.56,13.53-4,52.4,15,76.88,9.64,12.42,23.55,19.51,41.36,21.1,1.75-5,7.93-26.77-10.88-43.49-19.06-17-26.1-25.52-31.24-31.79-.82-1-1.61-2-2.39-2.89C212.12,493,207.11,483.59,204.3,478Z"/><path class="cls-1" d="M261.64,633.18s11.11-26.64-10.89-46.2S223,559.25,217.27,552.46s-13.79-23.93-13.79-23.93S185.88,627.48,261.64,633.18Z"/><path class="cls-1" d="M262.6,634.76l-1.08-.08c-19.23-1.45-34.24-9-44.62-22.35-24-30.94-15.28-81.9-14.9-84.06l.83-4.64,2,4.27c.08.16,8,17,13.58,23.59.79.94,1.58,1.91,2.41,2.92,5.08,6.19,12,14.66,30.92,31.45,22.53,20,11.39,47.62,11.27,47.9ZM204.3,533.62c-1.56,13.52-4,52.4,15,76.88,9.64,12.42,23.55,19.51,41.36,21.09,1.75-5,7.93-26.77-10.88-43.49-19.06-16.94-26.1-25.52-31.24-31.79-.82-1-1.61-2-2.39-2.88C212.12,548.68,207.11,539.23,204.3,533.62Z"/><path class="cls-1" d="M265.58,692.13s9.63-27.67-13.86-46.15-29.83-26.4-36-32.93-15.44-23.4-15.44-23.4S188.47,691,265.58,692.13Z"/><path class="cls-1" d="M266.64,693.65l-1.08,0c-19.57-.28-35.24-7-46.58-19.9-26.21-29.87-20.49-82.05-20.23-84.26l.54-4.68,2.26,4.14c.1.16,9.21,16.77,15.21,23.09.86.9,1.72,1.83,2.63,2.81,5.52,6,13.09,14.12,33.26,30,24,18.91,14.45,47.53,14.35,47.82Zm-65.28-99c-.76,13.74-.91,53.39,19.89,77.09,10.53,12,25.08,18.34,43.24,18.85,1.46-5.13,6.42-27.63-13.7-43.45-20.35-16-28-24.26-33.6-30.29-.9-1-1.75-1.89-2.6-2.79C210.23,609.5,204.55,600.17,201.36,594.67Z"/><path class="cls-1" d="M291.76,759.55s9.64-27.68-13.86-46.15-29.83-26.4-36-32.93-15.44-23.41-15.44-23.41S214.65,758.41,291.76,759.55Z"/><path class="cls-1" d="M292.83,761.07l-1.09,0c-19.57-.29-35.24-7-46.57-19.9-26.22-29.88-20.5-82-20.24-84.26l.54-4.68,2.27,4.13c.09.17,9.2,16.78,15.21,23.09.86.91,1.72,1.84,2.63,2.82,5.52,6,13.08,14.12,33.25,30,24.06,18.92,14.45,47.54,14.35,47.83Zm-65.29-99c-.75,13.73-.91,53.39,19.89,77.09,10.53,12,25.08,18.34,43.24,18.85,1.46-5.13,6.42-27.63-13.69-43.45-20.36-16-28-24.26-33.61-30.29-.89-1-1.75-1.89-2.6-2.79C236.41,676.92,230.73,667.59,227.54,662.09Z"/><path class="cls-1" d="M264.41,462.8s-11.13-24.87,9.16-43.86,25.53-26.83,30.77-33.38,12.43-22.91,12.43-22.91S335.75,455.6,264.41,462.8Z"/><path class="cls-1" d="M263.48,464.4l-.44-1c-.12-.26-11.32-26.07,9.51-45.56C290,401.56,296.31,393.4,301,387.44c.77-1,1.49-1.91,2.21-2.81,5.06-6.32,12.17-22.42,12.24-22.58l1.9-4.32.94,4.62c.42,2,9.88,49.95-12.05,79.75-9.49,12.89-23.49,20.36-41.63,22.19Zm52.6-96.64c-2.55,5.39-7,14.23-10.57,18.74-.72.9-1.44,1.82-2.19,2.79-4.7,6-11.14,14.3-28.72,30.75-17,15.94-10.94,36.42-9.22,41.15,16.71-1.94,29.62-8.95,38.39-20.86C321,417,317.88,380.73,316.08,367.76Z"/><path class="cls-1" d="M269,533.49s-11.13-24.87,9.16-43.85,25.53-26.84,30.77-33.39,12.43-22.91,12.43-22.91S340.34,526.29,269,533.49Z"/><path class="cls-1" d="M268.06,535.09l-.44-1c-.11-.25-11.32-26.07,9.51-45.56,17.41-16.29,23.77-24.45,28.4-30.41.77-1,1.49-1.91,2.22-2.81C312.8,449,319.91,432.9,320,432.74l1.9-4.32.94,4.62c.42,2,9.88,49.95-12.05,79.75-9.49,12.9-23.49,20.36-41.63,22.19Zm52.6-96.64c-2.54,5.39-7,14.23-10.57,18.74-.72.9-1.43,1.82-2.19,2.79-4.7,6-11.14,14.3-28.72,30.75-17.24,16.12-11,36.39-9.23,41.15,16.72-1.93,29.63-8.94,38.4-20.86C325.55,487.66,322.46,451.42,320.66,438.45Z"/><path class="cls-1" d="M275.54,608.11s-11.13-24.87,9.16-43.86,25.53-26.83,30.76-33.38S327.9,508,327.9,508,346.88,600.91,275.54,608.11Z"/><path class="cls-1" d="M274.61,609.71l-.44-1c-.12-.26-11.33-26.07,9.5-45.56,17.42-16.29,23.77-24.45,28.41-30.41.76-1,1.49-1.91,2.21-2.81,5.06-6.32,12.16-22.42,12.24-22.58l1.89-4.32.95,4.62c.41,2,9.88,49.95-12.05,79.75-9.49,12.89-23.5,20.36-41.63,22.19Zm52.6-96.64c-2.55,5.39-7,14.23-10.58,18.74-.71.9-1.43,1.82-2.18,2.79-4.7,6-11.14,14.3-28.73,30.75-17,15.94-10.94,36.42-9.21,41.14,16.71-1.93,29.62-8.94,38.39-20.85C332.09,562.28,329,526,327.21,513.07Z"/><path class="cls-1" d="M278.15,674.87S267,650,287.32,631s25.52-26.84,30.76-33.38,12.44-22.91,12.44-22.91S349.5,667.67,278.15,674.87Z"/><path class="cls-1" d="M277.23,676.47l-.45-1c-.11-.25-11.32-26.07,9.51-45.56,17.42-16.29,23.77-24.45,28.41-30.41.76-1,1.49-1.91,2.21-2.81,5-6.32,12.16-22.42,12.23-22.58l1.9-4.31.95,4.62c.41,2,9.88,49.94-12.05,79.74-9.49,12.9-23.5,20.36-41.64,22.19Zm52.59-96.63c-2.54,5.39-7,14.22-10.57,18.73-.71.9-1.43,1.82-2.18,2.79-4.7,6-11.14,14.3-28.73,30.75-17.23,16.12-11,36.39-9.22,41.15,16.71-1.93,29.62-8.94,38.4-20.86C334.71,629,331.63,592.8,329.82,579.84Z"/><path class="cls-1" d="M299.53,735s-13.8-23.5,4.28-44.6,22.42-29.48,26.9-36.56,9.84-24.14,9.84-24.14S369.65,720,299.53,735Z"/><path class="cls-1" d="M298.79,736.7l-.55-.93c-.14-.25-14.13-24.67,4.43-46.33,15.52-18.11,20.93-26.92,24.89-33.35.65-1.06,1.27-2.07,1.89-3.05,4.33-6.83,9.62-23.61,9.67-23.78l1.41-4.5,1.45,4.49c.63,2,15.32,48.55-3.2,80.58-8,13.87-21.11,22.83-38.93,26.65Zm41.64-101.84c-1.94,5.64-5.36,14.91-8.45,19.79-.61,1-1.22,2-1.87,3-4,6.52-9.49,15.44-25.16,33.73-15.35,17.92-6.95,37.38-4.64,41.91,16.4-3.76,28.46-12.15,35.87-25C350.7,683.23,343.64,647.55,340.43,634.86Z"/><path class="cls-1" d="M272.92,310.94s-10.48-45.81,12.43-67.41,39.93-32.73,39.93-32.73S337.06,295.89,272.92,310.94Z"/><path class="cls-1" d="M271.79,312.75l-.34-1.47c-.43-1.91-10.39-46.91,12.87-68.84,22.75-21.45,40-32.78,40.14-32.9l2-1.29.33,2.34a144.77,144.77,0,0,1-2.15,45c-6.77,30.9-24.53,50.56-51.36,56.86Zm52.27-99.3a346.58,346.58,0,0,0-37.68,31.17c-19.73,18.6-13.82,56.51-12.3,64.5,25.12-6.45,41.14-24.68,47.61-54.21A142.47,142.47,0,0,0,324.06,213.45Z"/><path class="cls-1" d="M577.6,272.56s10.59-45.79,40.63-55.21,50.21-12,50.21-12S641.88,287,577.6,272.56Z"/><path class="cls-1" d="M592.37,275.75a68.29,68.29,0,0,1-15.1-1.73l-1.47-.33.34-1.47c.44-1.9,11.13-46.73,41.64-56.3,29.83-9.36,50.27-12,50.47-12.06l2.35-.3-.73,2.25a144.53,144.53,0,0,1-21.57,39.5C632.45,265.41,613.34,275.75,592.37,275.75Zm-12.93-4.33c25.42,5.18,47.79-4.23,66.51-28a142.49,142.49,0,0,0,20.24-36.25,346.92,346.92,0,0,0-47.51,11.58C592.79,226.9,581.57,263.58,579.44,271.42Z"/><path class="cls-1" d="M551.1,342.36s-5.89-31.42,26.84-42.54a265.68,265.68,0,0,0,56.94-27.49S620.48,360.69,551.1,342.36Z"/><path class="cls-1" d="M569.23,346.36a72.44,72.44,0,0,1-18.51-2.55l-.92-.24-.18-.93c-.06-.33-5.74-32.83,27.83-44.24A265.64,265.64,0,0,0,634,271.08l2.88-1.94-.56,3.43c-.3,1.86-7.79,45.91-37.44,65.15A53.48,53.48,0,0,1,569.23,346.36Zm-16.79-5.2c17,4.29,32.13,2.29,44.83-6,23.88-15.49,33-48.94,35.44-59.71a275.17,275.17,0,0,1-54.29,25.74C550.39,310.77,551.83,336,552.44,341.16Z"/><path class="cls-1" d="M509.21,414.36s-5.89-31.42,26.83-42.54a265.62,265.62,0,0,0,57-27.49S578.59,432.69,509.21,414.36Z"/><path class="cls-1" d="M527.34,418.36a72.57,72.57,0,0,1-18.52-2.55l-.91-.24-.18-.93c-.06-.33-5.74-32.83,27.83-44.24a265.64,265.64,0,0,0,56.59-27.32l2.88-1.94-.56,3.43c-.3,1.86-7.79,45.91-37.45,65.15A53.42,53.42,0,0,1,527.34,418.36Zm-16.79-5.2c17.05,4.29,32.13,2.29,44.83-6,23.88-15.49,33-48.94,35.44-59.71a275.17,275.17,0,0,1-54.29,25.74C508.5,382.77,509.94,408,510.55,413.16Z"/><path class="cls-1" d="M484.34,480.47s-5.9-31.42,26.83-42.54a265.62,265.62,0,0,0,56.95-27.49S553.72,498.8,484.34,480.47Z"/><path class="cls-1" d="M502.46,484.47A72.5,72.5,0,0,1,484,481.92l-.91-.24-.18-.93c-.06-.33-5.74-32.83,27.83-44.24a266,266,0,0,0,56.59-27.32l2.88-1.94-.56,3.43c-.31,1.86-7.79,45.91-37.45,65.15A53.54,53.54,0,0,1,502.46,484.47Zm-16.79-5.2c17.05,4.29,32.13,2.29,44.84-5.95,23.88-15.49,33-48.94,35.44-59.71a275.64,275.64,0,0,1-54.3,25.74C483.3,449,485,474,485.67,479.27Z"/><path class="cls-1" d="M462.77,550.31s-6.37-34,29-46a286.87,286.87,0,0,0,61.57-29.72S537.79,570.12,462.77,550.31Z"/><path class="cls-1" d="M482.37,554.51a78.39,78.39,0,0,1-20-2.75l-.92-.25-.18-.93c-.06-.35-6.19-35.39,30-47.7a288.45,288.45,0,0,0,61.21-29.54l2.88-1.95-.55,3.43c-.33,2-8.41,49.59-40.44,70.36A57.7,57.7,0,0,1,482.37,554.51ZM464.1,549.1c18.51,4.68,34.88,2.51,48.67-6.43,26.08-16.92,35.93-53.57,38.42-64.92a296.7,296.7,0,0,1-58.92,28C461.37,516.23,463.36,543.59,464.1,549.1Z"/><path class="cls-1" d="M437.9,611.18s-6.37-34,29-46a286.61,286.61,0,0,0,61.57-29.73S512.91,631,437.9,611.18Z"/><path class="cls-1" d="M457.49,615.38a78.51,78.51,0,0,1-20-2.75l-.91-.24-.18-.94c-.06-.35-6.19-35.39,30-47.69a287.63,287.63,0,0,0,61.21-29.55l2.88-1.94-.56,3.42c-.33,2-8.41,49.59-40.43,70.37A57.73,57.73,0,0,1,457.49,615.38ZM439.24,610c18.5,4.67,34.86,2.5,48.65-6.43C514,586.64,523.82,550,526.32,538.63a297.16,297.16,0,0,1-58.93,28C436.85,577,438.58,604.57,439.24,610Z"/><path class="cls-1" d="M436.59,674.67s-6.37-34,29-46a286.61,286.61,0,0,0,61.57-29.73S511.6,694.48,436.59,674.67Z"/><path class="cls-1" d="M456.19,678.87a78.53,78.53,0,0,1-20-2.75l-.91-.24-.18-.94c-.06-.35-6.19-35.38,30-47.69a287.63,287.63,0,0,0,61.21-29.55l2.88-1.94-.56,3.43c-.32,2-8.41,49.58-40.43,70.36A57.69,57.69,0,0,1,456.19,678.87Zm-18.26-5.4c18.5,4.67,34.87,2.5,48.66-6.44,26.08-16.92,35.93-53.57,38.42-64.91a297.28,297.28,0,0,1-58.92,28C435.54,640.47,437.28,668.06,437.93,673.47Z"/><path class="cls-1" d="M534.74,315.53c1.2,1.55,24.21,5.23,31.41-38.62s13.09-52.37,13.09-52.37S500.7,271.67,534.74,315.53Z"/><path class="cls-1" d="M538.44,317.83c-2.39,0-4.25-.56-4.89-1.38h0c-7.54-9.72-10.29-20.38-8.17-31.69,6.18-33,51.18-60.35,53.09-61.5l6-3.58-4,5.72c-.05.07-5.86,9.18-12.85,51.75-5,30.69-17.76,38.31-24.9,40.12A17.33,17.33,0,0,1,538.44,317.83Zm-2.63-3.37c.85.4,4.6,1,9.23-1.18,6.73-3.13,15.59-12,19.63-36.61,4.6-28,8.69-41.75,11.09-48.08-11.49,7.75-42.59,30.85-47.43,56.72C526.38,295.69,528.9,305.49,535.81,314.46Z"/><path class="cls-1" d="M506.51,375.55c1.65,1.38,27.17-.07,24.6-48.75s1.73-59.18,1.73-59.18S459.74,336.55,506.51,375.55Z"/><path class="cls-1" d="M508.16,377.34a4.27,4.27,0,0,1-2.62-.64c-10.32-8.61-15.76-19.35-16.14-31.93C488.28,308,530,268.2,531.81,266.53l5.06-4.77-2.64,6.43c0,.09-4.13,11.2-1.63,58.53,1.8,34-10,45.09-17.18,48.7A17.17,17.17,0,0,1,508.16,377.34Zm-.82-3c.94.23,5.14,0,9.61-3.33,6.58-4.91,14.12-16.54,12.66-44.08-1.69-31.78-.45-47.42.66-54.54C520,283,491.51,315.48,492.4,344.69,492.76,356.31,497.78,366.27,507.34,374.29Z"/><path class="cls-1" d="M477.39,435.64c1.76,1.24,27.08-2.26,20.59-50.57s-3-59.13-3-59.13S427.63,400.54,477.39,435.64Z"/><path class="cls-1" d="M478.51,437.33a3.57,3.57,0,0,1-2-.46h0c-11-7.75-17.27-18-18.66-30.52-4.08-36.56,34.33-79.6,36-81.42l4.66-5.16-2.11,6.63c0,.09-3.22,11.49,3.09,58.47,4.54,33.72-6.32,45.75-13.2,49.92A16.2,16.2,0,0,1,478.51,437.33Zm-.26-2.91Zm-.14-.1c1,.15,5.13-.42,9.31-4.1,6.17-5.42,12.74-17.62,9.07-45-4.24-31.54-4.26-47.23-3.74-54.42C483.4,342.33,457.59,377,460.84,406,462.13,417.57,467.94,427.09,478.11,434.32Z"/><path class="cls-1" d="M462.74,512.77c2.13.66,25.95-10.85,4.19-56.35s-21.8-57.26-21.8-57.26S402.58,494,462.74,512.77Z"/><path class="cls-1" d="M462.92,514.28a2.09,2.09,0,0,1-.63-.08h0C449,510.06,439.58,502,434.24,490.11c-15.63-34.68,8.49-89.26,9.52-91.56l2.85-6.35,0,7c0,.1.48,12.34,21.65,56.61,15.18,31.74,8.32,47,2.89,53.3C468.3,512.39,464.83,514.28,462.92,514.28Zm.26-2.95h0ZM444.56,404.52c-5.52,14.14-20.07,56.67-7.58,84.36,4.95,11,13.72,18.52,26,22.4,1-.13,4.9-2,7.87-6.95,4.39-7.31,7-21.43-5.32-47.27C451.27,427.13,446.29,411.69,444.56,404.52Z"/><path class="cls-1" d="M439.6,564.77c2.25.7,27.44-11.47,4.43-59.59s-23-60.55-23-60.55S376,545,439.6,564.77Z"/><path class="cls-1" d="M439.8,566.29a2.11,2.11,0,0,1-.64-.09h0c-14-4.37-24-12.92-29.62-25.43-16.51-36.63,9-94.31,10.08-96.75l2.84-6.35,0,7c0,.11.5,13,22.91,59.9,16,33.52,8.8,49.65,3.06,56.27C445.43,564.29,441.8,566.29,439.8,566.29ZM420.39,450c-5.76,14.7-21.4,60.06-8.11,89.53,5.25,11.65,14.55,19.64,27.62,23.75,1-.12,5.16-2.06,8.34-7.29,4.71-7.73,7.57-22.72-5.56-50.17C427.36,473.79,422.16,457.47,420.39,450Z"/><path class="cls-1" d="M420.62,618.44c2.25.7,27.44-11.47,4.43-59.59S402,498.31,402,498.31,357,598.62,420.62,618.44Z"/><path class="cls-1" d="M420.82,620a2.06,2.06,0,0,1-.64-.09h0c-14-4.36-24-12.92-29.62-25.43-16.51-36.63,9-94.31,10.07-96.75l2.85-6.34,0,6.95c0,.11.5,13.05,22.91,59.9,16,33.53,8.79,49.65,3.06,56.28C426.45,618,422.82,620,420.82,620ZM401.41,503.69c-5.76,14.69-21.4,60.05-8.11,89.53,5.25,11.64,14.54,19.63,27.62,23.74,1-.12,5.16-2.05,8.34-7.28,4.71-7.74,7.57-22.72-5.56-50.18C408.38,527.46,403.18,511.14,401.41,503.69Z"/><path class="cls-1" d="M426.57,683.34c2.36.12,23.69-18-10.65-58.79s-37.5-52.83-37.5-52.83S360,680.11,426.57,683.34Z"/><path class="cls-1" d="M426.58,684.84h-.08c-14.66-.71-26.45-6.49-35-17.19-25.18-31.32-15-93.55-14.52-96.18l1.16-6.86,1.77,6.73c0,.1,3.75,12.5,37.2,52.24C441,652,438,669.43,434.14,677.29,431.88,681.85,428.44,684.84,426.58,684.84ZM379.2,577.07c-1.89,15.67-5.66,63.51,14.6,88.71,8,10,19,15.36,32.69,16.06.95-.38,4.48-3.29,6.25-9.15,2.62-8.67,1.62-23.89-18-47.18C391.91,598.34,382.78,583.85,379.2,577.07Z"/><path class="cls-1" d="M302.37,750.8l5.24-2s24.22,89.67,64.8,144S460.12,995.6,460.12,995.6l2-9.16s-37.31-102.77-38.62-168.22,9.82-130.91,9.82-130.91h4.58S426.74,832,454.23,904s31.41,81.82,31.41,81.82l-11.78,57.6S344.26,927.53,302.37,750.8Z"/><path class="cls-2" d="M346.88,858.8s-108.65,2-139.42-55.64S136.12,632.33,98.81,619.89L61.5,607.45s76.58-26.83,109.31-5.89,55.63,38.62,72,74S259.17,744.91,267,778.29,288,828.69,346.88,858.8Z"/><path class="cls-3" d="M51,780.25S8.48,672.25,62.81,631s108-29.46,108-29.46-72-60.87-141.38-.65S32.7,750.14,51,780.25Z"/><path class="cls-2" d="M415.38,863.57S517.13,825.4,524.53,760.51s3.44-185.1,33.55-210.4l30.11-25.3s-81.09,3.25-103.8,34.77S446.88,616,444.67,654.86,455,725.39,460,759.32,459.07,813.89,415.38,863.57Z"/><path class="cls-3" d="M661.54,681.62s-.2-116.08-65.89-134.42-111.26,12.38-111.26,12.38,44.53-83.1,131.21-52.66S667.5,646.88,661.54,681.62Z"/><path class="cls-1" d="M182.59,585.89a2,2,0,0,1-1.89-1.34L139.47,466.73a2,2,0,1,1,3.77-1.32l41.24,117.82a2,2,0,0,1-1.23,2.55A2.17,2.17,0,0,1,182.59,585.89Z"/><path class="cls-1" d="M188.48,462.18a2,2,0,0,1-2-1.6L157.07,314a2,2,0,1,1,3.92-.79l29.45,146.62a2,2,0,0,1-1.57,2.35A1.72,1.72,0,0,1,188.48,462.18Z"/><path class="cls-1" d="M198.3,404.58h0a2,2,0,0,1-2-2l3.27-212.73a2,2,0,0,1,2-2h0a2,2,0,0,1,2,2L200.3,402.61A2,2,0,0,1,198.3,404.58Z"/><path class="cls-1" d="M236.92,256l-.26,0a2,2,0,0,1-1.73-2.24L258.5,74.39a2,2,0,0,1,4,.52L238.9,254.26A2,2,0,0,1,236.92,256Z"/><path class="cls-1" d="M312.19,198.4a1.79,1.79,0,0,1-.55-.08,2,2,0,0,1-1.37-2.47l51.05-180a2,2,0,0,1,3.85,1.1L314.11,197A2,2,0,0,1,312.19,198.4Z"/><path class="cls-1" d="M331.83,284.15a2,2,0,0,1-.54-.08,2,2,0,0,1-1.39-2.46l47.78-171.49a2,2,0,1,1,3.85,1.07L333.75,282.68A2,2,0,0,1,331.83,284.15Z"/><path class="cls-1" d="M324.63,414.4a1.75,1.75,0,0,1-.55-.08,2,2,0,0,1-1.38-2.47l41.89-147.92a2,2,0,0,1,3.85,1.09L326.55,412.94A2,2,0,0,1,324.63,414.4Z"/><path class="cls-1" d="M330.52,489a2.12,2.12,0,0,1-.44,0,2,2,0,0,1-1.51-2.39l24.21-107.35a2,2,0,0,1,3.91.88L332.47,487.46A2,2,0,0,1,330.52,489Z"/><path class="cls-1" d="M335.1,566.25a2.2,2.2,0,0,1-.5-.06,2,2,0,0,1-1.44-2.43l25.53-100.15a2,2,0,1,1,3.87,1L337,564.75A2,2,0,0,1,335.1,566.25Z"/><path class="cls-1" d="M357.35,638.25a1.93,1.93,0,0,1-.47,0,2,2,0,0,1-1.47-2.42L379,538.26a2,2,0,1,1,3.89.94L359.3,636.72A2,2,0,0,1,357.35,638.25Z"/><path class="cls-1" d="M389.43,485.74h-.2a2,2,0,0,1-1.79-2.19L398.56,369a2,2,0,1,1,4,.38L391.42,483.94A2,2,0,0,1,389.43,485.74Z"/><path class="cls-1" d="M441.79,380.36a1.84,1.84,0,0,1-.33,0,2,2,0,0,1-1.64-2.3l25.53-150.55a2,2,0,0,1,3.94.67L443.76,378.7A2,2,0,0,1,441.79,380.36Z"/><path class="cls-1" d="M473.86,329.31a2,2,0,0,1-.81-.18,2,2,0,0,1-1-2.64l87.05-194.4a2,2,0,1,1,3.65,1.64l-87.05,194.4A2,2,0,0,1,473.86,329.31Z"/><path class="cls-1" d="M567.46,209.53a2,2,0,0,1-1-.3,2,2,0,0,1-.66-2.75L663.94,46.77a2,2,0,1,1,3.41,2.09L569.17,208.57A2,2,0,0,1,567.46,209.53Z"/><path class="cls-1" d="M658.44,192.51a2,2,0,0,1-1.23-.43,2,2,0,0,1-.34-2.81L805.46.76a2,2,0,0,1,3.14,2.48L660,191.75A2,2,0,0,1,658.44,192.51Z"/><path class="cls-1" d="M639.46,270.4a2,2,0,0,1-1.55-3.27l117.82-144a2,2,0,0,1,3.1,2.54L641,269.67A2,2,0,0,1,639.46,270.4Z"/><path class="cls-1" d="M582.52,393.45A2,2,0,0,1,581,390.2l98.83-123a2,2,0,1,1,3.12,2.5L584.08,392.71A2,2,0,0,1,582.52,393.45Z"/><path class="cls-1" d="M565.5,460.22a2,2,0,0,1-1.23-.43,2,2,0,0,1-.35-2.8l64.8-83.13a2,2,0,0,1,3.16,2.46l-64.8,83.13A2,2,0,0,1,565.5,460.22Z"/><path class="cls-1" d="M557,500.8a2,2,0,0,1-1.29-.47,2,2,0,0,1-.24-2.82l38-45.16a2,2,0,0,1,3.06,2.57l-38,45.17A2,2,0,0,1,557,500.8Z"/></g></g></svg>