<svg width="102" height="102" viewBox="0 0 102 102" fill="none" xmlns="http://www.w3.org/2000/svg">
<path d="M50.9999 0C22.8334 0 0 22.8334 0 50.9999C0 79.1663 22.8334 102 50.9999 102C79.1663 102 102 79.1663 102 50.9999C101.97 22.846 79.154 0.0300962 50.9999 0ZM50.9999 94.7141C26.8572 94.7141 7.28564 75.1426 7.28564 50.9999C7.28564 26.8572 26.8572 7.28564 50.9999 7.28564C75.1426 7.28564 94.7141 26.8572 94.7141 50.9999C94.6881 75.132 75.132 94.6881 50.9999 94.7141Z" fill="#FFC223"/>
<path d="M78.986 30.2104C77.5742 28.8469 75.3362 28.8469 73.9247 30.2104L40.0715 64.0633L28.0755 52.0673C26.6779 50.6201 24.3716 50.5802 22.9246 51.9779C21.4774 53.3755 21.4375 55.6818 22.8351 57.1288C22.8644 57.1591 22.8943 57.189 22.9246 57.2182L37.4961 71.7897C38.9185 73.2119 41.2246 73.2119 42.647 71.7897L79.0756 35.3611C80.4733 33.9141 80.4332 31.608 78.986 30.2104Z" fill="#FFC223"/>
</svg>
